<?xml version="1.0" standalone="no"?>
<!DOCTYPE svg PUBLIC "-//W3C//DTD SVG 20010904//EN"
 "http://www.w3.org/TR/2001/REC-SVG-20010904/DTD/svg10.dtd">
<svg version="1.0" xmlns="http://www.w3.org/2000/svg"
 width="500.000000pt" height="500.000000pt" viewBox="0 0 500.000000 500.000000"
 preserveAspectRatio="xMidYMid meet">
<metadata>
Created by potrace 1.14, written by Peter Selinger 2001-2017
</metadata>
<g transform="translate(0.000000,500.000000) scale(0.100000,-0.100000)"
fill="#000000" stroke="none">
<path d="M662 4155 c-62 -19 -106 -57 -136 -117 l-26 -52 0 -1213 c0 -1319 -3
-1241 55 -1317 15 -19 48 -45 73 -58 l47 -23 673 -3 672 -3 0 -159 0 -160
-141 0 -141 0 -34 -34 c-58 -58 -42 -141 32 -172 27 -12 161 -14 758 -14 489
0 734 3 753 11 69 26 96 83 67 144 -26 57 -54 65 -209 65 l-135 0 0 160 0 159
673 3 c622 3 675 4 712 21 57 26 84 54 116 122 l29 60 0 1191 c0 1340 5 1249
-76 1330 -79 80 72 74 -1933 73 -1461 0 -1794 -3 -1829 -14z m3616 -1382 l-3
-1178 -1780 0 -1780 0 -3 1178 -2 1177 1785 0 1785 0 -2 -1177z"/>
<path d="M2121 3781 c-36 -50 -94 -182 -94 -212 0 -15 37 -105 83 -200 96
-197 101 -223 57 -326 -30 -70 -33 -93 -13 -93 37 0 106 133 106 203 0 18 -21
77 -46 132 -26 55 -60 138 -76 185 -37 103 -35 160 11 247 17 32 31 66 31 76
0 27 -36 20 -59 -12z"/>
<path d="M2332 3688 c-33 -43 -54 -105 -54 -163 1 -71 13 -105 70 -193 22 -35
46 -80 53 -99 17 -51 6 -127 -30 -206 -17 -38 -31 -71 -31 -73 0 -2 9 -4 21
-4 33 0 76 57 95 127 24 88 11 151 -60 293 -67 133 -72 180 -30 260 14 27 23
54 19 60 -9 14 -40 13 -53 -2z"/>
<path d="M1780 3255 c0 -2 8 -26 19 -52 24 -62 201 -557 329 -923 l100 -285
113 0 c63 -1 124 -4 136 -8 16 -6 28 -2 43 13 l21 21 24 -28 c13 -16 25 -31
25 -34 0 -12 86 -67 122 -78 68 -22 144 -16 213 18 73 36 118 83 153 159 20
45 24 65 20 130 -4 90 -27 144 -91 209 -59 61 -106 76 -216 71 l-90 -4 5 25
c4 14 21 74 39 133 l33 106 -40 18 c-21 10 -41 21 -43 25 -3 3 29 103 69 220
41 118 77 224 81 237 6 22 5 22 -77 22 l-83 0 -22 -62 c-12 -35 -78 -223 -147
-418 -138 -395 -186 -520 -197 -520 -4 0 -14 19 -22 43 -8 23 -88 246 -176
496 -89 250 -162 455 -164 456 -5 5 -177 15 -177 10z m1108 -911 c64 -32 94
-72 100 -134 9 -96 -47 -195 -125 -221 -49 -16 -126 -5 -179 26 -155 91 -80
355 102 355 34 0 67 -8 102 -26z"/>
</g>
</svg>
