<?xml version="1.0" standalone="no"?>
<!DOCTYPE svg PUBLIC "-//W3C//DTD SVG 20010904//EN"
 "http://www.w3.org/TR/2001/REC-SVG-20010904/DTD/svg10.dtd">
<svg version="1.0" xmlns="http://www.w3.org/2000/svg"
 width="500.000000pt" height="500.000000pt" viewBox="0 0 500.000000 500.000000"
 preserveAspectRatio="xMidYMid meet">

<g transform="translate(0.000000,500.000000) scale(0.100000,-0.100000)"
fill="#000000" stroke="none">
<path d="M663 4156 c-61 -20 -100 -51 -133 -109 l-30 -52 0 -1218 c0 -1324 -3
-1245 55 -1321 15 -19 48 -45 73 -58 l47 -23 673 -3 672 -3 0 -159 0 -160
-141 0 -141 0 -34 -34 c-58 -58 -42 -141 32 -172 27 -12 161 -14 758 -14 489
0 734 3 753 11 69 26 96 83 67 144 -26 57 -54 65 -209 65 l-135 0 0 160 0 159
678 3 c671 3 677 3 717 25 53 28 78 57 109 123 l26 55 0 1191 c0 1336 5 1247
-74 1329 -78 81 75 75 -1935 74 -1437 0 -1794 -3 -1828 -13z m3615 -1383 l-3
-1178 -1774 -3 c-1413 -2 -1776 0 -1783 10 -4 7 -8 538 -8 1181 l0 1167 1785
0 1785 0 -2 -1177z"/>
<path d="M2121 3781 c-36 -50 -94 -182 -94 -212 0 -15 37 -105 83 -199 96
-196 99 -218 57 -322 -30 -75 -33 -98 -13 -98 42 0 111 145 103 215 -2 22 -30
95 -61 163 -64 140 -90 229 -83 284 3 21 19 67 36 103 17 35 31 71 31 79 0 26
-37 18 -59 -13z"/>
<path d="M2332 3688 c-33 -42 -54 -106 -54 -163 0 -69 18 -119 75 -202 68
-101 73 -174 18 -296 -17 -38 -31 -71 -31 -73 0 -2 9 -4 21 -4 47 0 109 111
109 194 0 55 -27 138 -80 239 -60 118 -65 168 -24 247 14 27 23 54 19 60 -9
14 -40 13 -53 -2z"/>
<path d="M1780 3256 c0 -2 14 -42 31 -88 17 -46 118 -328 224 -628 l193 -545
104 -1 c57 0 117 -4 134 -8 26 -7 36 -4 53 13 l22 22 19 -23 c11 -13 19 -26
20 -30 0 -3 21 -22 48 -41 107 -79 237 -80 344 -2 113 82 157 221 113 355 -21
63 -100 152 -156 174 -43 17 -153 23 -203 10 -24 -6 -28 -4 -23 12 16 59 50
175 62 210 l13 41 -45 22 c-25 12 -43 27 -40 34 9 26 145 423 151 444 6 18 2
22 -21 25 -15 2 -53 2 -83 0 l-56 -4 -64 -181 c-221 -632 -288 -817 -299 -817
-9 0 -17 23 -207 559 -85 239 -155 435 -156 436 -6 5 -178 16 -178 11z m1108
-913 c66 -33 94 -71 100 -133 9 -96 -47 -195 -125 -221 -80 -26 -201 17 -240
87 -39 68 -26 172 30 233 63 68 144 80 235 34z"/>
</g>
</svg>
